<svg xmlns="http://www.w3.org/2000/svg" xml:space="preserve" width="1500" height="1500" data-id="lg_o8xaQeJifGozE7tDZ7" data-version="1"><path stroke="transparent" d="M0 0h1500v1500H0z"/><g data-padding="20"><g transform="translate(-571.429 -572.449)scale(1.72194)"><path fill="#fff" d="M492.087 922.785v-12.71h71.12v12.71h-29.2v76.22h-12.72v-76.22Zm77.51 64v-16.62q0-2.54.96-4.74t2.61-3.88q1.64-1.67 3.87-2.63 2.23-.97 4.72-.97h31.5v-12.77h-39.88v-12.22h39.88q2.54 0 4.77.97 2.23.96 3.88 2.6 1.64 1.64 2.6 3.88.96 2.23.96 4.77v53.83h-12.21v-11.17q-.19 2.3-1.24 4.35-1.06 2.04-2.7 3.56t-3.75 2.39-4.47.87h-19.34q-2.49 0-4.72-.96-2.23-.97-3.87-2.61-1.65-1.64-2.61-3.87-.96-2.24-.96-4.78m12.16-16.62v16.62h31.5v-16.62Zm101.38-24.99h-25.17v53.83h-12.16v-66.05h12.16v11.66q.12-2.42 1.11-4.56 1-2.13 2.64-3.72 1.64-1.58 3.81-2.48t4.65-.9h12.96q2.55 0 4.75.97 2.2.96 3.87 2.6 1.68 1.64 2.64 3.88.96 2.23.96 4.77v11.16h-12.22Zm27.41 41.61v-16.62q0-2.54.96-4.74.97-2.2 2.61-3.88 1.64-1.67 3.88-2.63 2.23-.97 4.71-.97h31.5v-12.77h-39.87v-12.22h39.87q2.54 0 4.77.97 2.24.96 3.88 2.6t2.61 3.88q.96 2.23.96 4.77v53.83h-12.22v-11.17q-.19 2.3-1.24 4.35-1.05 2.04-2.7 3.56-1.64 1.52-3.75 2.39t-4.46.87h-19.35q-2.48 0-4.71-.96-2.24-.97-3.88-2.61t-2.61-3.87q-.96-2.24-.96-4.78m12.16-16.62v16.62h31.5v-16.62Zm122.47-24.99v53.83h-12.22v-53.83h-34.04v53.83h-12.15v-66.05h12.15v11.66q.12-2.42 1.12-4.56.99-2.13 2.63-3.72 1.65-1.58 3.82-2.48t4.65-.9h21.82q2.55 0 4.78.97 2.23.96 3.88 2.6 1.64 1.64 2.6 3.88.96 2.23.96 4.77m77.46 0v41.61q0 2.54-.96 4.78-.96 2.23-2.6 3.87-1.65 1.64-3.85 2.61-2.2.96-4.74.96h-32.8q-2.49 0-4.72-.96-2.23-.97-3.87-2.61-1.65-1.64-2.61-3.87-.96-2.24-.96-4.78v-41.61q0-2.54.96-4.77.96-2.24 2.61-3.88 1.64-1.64 3.87-2.6 2.23-.97 4.72-.97h32.8q2.54 0 4.74.97 2.2.96 3.85 2.6 1.64 1.64 2.6 3.88.96 2.23.96 4.77m-12.15 0h-32.8v41.61h32.8Zm112.73 0h-27.91v53.83h-12.21v-53.83h-27.97v53.83h-12.16v-66.05h12.16v11.66q.12-2.42 1.11-4.56 1-2.13 2.64-3.72 1.64-1.58 3.81-2.48t4.65-.9h15.76q2.41 0 4.58.9t3.85 2.48q1.67 1.59 2.7 3.72 1.02 2.14 1.08 4.56.13-2.42 1.09-4.56.96-2.13 2.6-3.72 1.64-1.58 3.81-2.48 2.18-.9 4.66-.9h15.75q2.54 0 4.77.97 2.23.96 3.88 2.6 1.64 1.64 2.6 3.88.96 2.23.96 4.77v53.83h-12.21Z"/><rect width="560" height="143.51" x="86.907" y="296.095" fill="none" rx="0" ry="0" transform="translate(400.5 592.29)"/><path fill="#f012be" d="M776.527 829.325h-47.6v-215.47h-59.4v-41.69h166.4v41.69h-59.4Z"/><rect width="180.86" height="416.92" x="276.477" y="159.385" fill="none" rx="0" ry="0" transform="translate(386.41 344.72)"/><path fill="#52b9b9" d="M804.697 829.325h-47.6v-215.47h-59.4v-41.69h166.4v41.69h-59.4Z"/><rect width="180.86" height="416.92" x="276.477" y="159.385" fill="none" rx="0" ry="0" transform="translate(414.58 344.72)"/><path fill="#fff" d="M790.617 829.325h-47.6v-215.47h-59.4v-41.69h166.4v41.69h-59.4Z"/><rect width="180.86" height="416.92" x="276.477" y="159.385" fill="none" rx="0" ry="0" transform="translate(400.5 344.72)"/></g><path fill="transparent" stroke="transparent" stroke-width="1.786" d="M250 278.571h1000v942.858H250z"/></g></svg>